<svg version="1.1" viewBox="0.0 0.0 960.0 720.0" fill="none" stroke="none" stroke-linecap="square" stroke-miterlimit="10" xmlns:xlink="http://www.w3.org/1999/xlink" xmlns="http://www.w3.org/2000/svg"><clipPath id="p.0"><path d="m0 0l960.0 0l0 720.0l-960.0 0l0 -720.0z" clip-rule="nonzero"/></clipPath><g clip-path="url(#p.0)"><path fill="#000000" fill-opacity="0.0" d="m0 0l960.0 0l0 720.0l-960.0 0z" fill-rule="evenodd"/><path fill="#000000" fill-opacity="0.0" d="m237.19685 113.59055l485.60632 0l0 492.81888l-485.60632 0z" fill-rule="evenodd"/><path stroke="#ffffff" stroke-width="4.0" stroke-linejoin="round" stroke-linecap="butt" d="m237.19685 113.59055l485.60632 0l0 492.81888l-485.60632 0z" fill-rule="evenodd"/><path fill="#000000" fill-opacity="0.0" d="m281.27036 149.04987l407.46457 0l0 358.20474l-407.46457 0z" fill-rule="evenodd"/><path fill="#ffffff" d="m377.6789 178.83737q3.546875 0 6.1875 1.546875q2.65625 1.546875 4.46875 4.0625q1.828125 2.5 2.921875 5.609375q1.09375 3.09375 1.640625 6.234375q0.546875 3.140625 0.671875 5.96875q0.140625 2.828125 0.046875 4.65625q-0.453125 7.109375 -2.046875 13.671875q-1.59375 6.5625 -3.96875 12.34375q-2.359375 5.78125 -5.375 10.65625q-3.0 4.875 -6.28125 8.703125q0.453125 0.46875 0.953125 1.015625q0.5 0.546875 0.953125 1.0q2.5625 2.546875 5.203125 4.28125q2.28125 1.546875 5.015625 2.59375q2.734375 1.046875 5.1875 0.328125q0.09375 1.265625 -0.78125 1.953125q-0.859375 0.6875 -1.859375 1.046875q-1.1875 0.359375 -2.828125 0.453125q-2.09375 0 -4.421875 -0.875q-2.3125 -0.859375 -4.46875 -2.09375q-2.140625 -1.21875 -4.0625 -2.6875q-1.90625 -1.453125 -3.171875 -2.546875q-4.109375 4.015625 -8.078125 6.015625q-3.953125 2.015625 -7.328125 2.015625q-5.5625 0 -7.9375 -2.421875q-2.359375 -2.421875 -2.09375 -5.96875q0.09375 -1.734375 1.09375 -3.65625q1.0 -1.90625 2.78125 -3.5q1.78125 -1.59375 4.234375 -2.59375q2.46875 -1.0 5.65625 -1.0q3.09375 0 5.515625 0.546875q2.421875 0.546875 4.78125 1.8125q2.921875 -4.09375 5.5625 -9.234375q2.640625 -5.15625 4.6875 -10.71875q2.0625 -5.5625 3.421875 -11.203125q1.375 -5.65625 1.734375 -10.765625q0.359375 -6.5625 -0.375 -10.796875q-0.71875 -4.234375 -2.09375 -6.734375q-1.359375 -2.515625 -3.0 -3.515625q-1.640625 -1.0 -3.0 -1.0q-3.109375 0 -6.890625 3.046875q-3.78125 3.046875 -7.25 8.515625q-3.453125 5.46875 -6.015625 12.953125q-2.546875 7.46875 -3.1875 16.3125q-0.09375 3.828125 0.734375 6.828125q0.359375 1.28125 0.953125 2.515625q0.59375 1.21875 1.5 2.1875q0.921875 0.953125 2.1875 1.5q1.28125 0.546875 3.015625 0.453125q-0.1875 1.546875 -1.1875 2.375q-1.0 0.8125 -2.09375 1.1875q-1.28125 0.453125 -2.921875 0.453125q-1.359375 0 -3.375 -1.140625q-2.0 -1.140625 -3.875 -3.59375q-1.859375 -2.46875 -3.046875 -6.34375q-1.1875 -3.875 -0.734375 -9.34375q0.28125 -3.640625 1.328125 -8.234375q1.046875 -4.609375 2.953125 -9.390625q1.921875 -4.796875 4.609375 -9.34375q2.6875 -4.5625 6.234375 -8.15625q3.5625 -3.609375 7.9375 -5.796875q4.375 -2.1875 9.578125 -2.1875zm-21.234375 79.65625q2.359375 0 4.953125 -1.59375q2.609375 -1.59375 5.15625 -4.328125q-2.1875 -1.453125 -4.640625 -1.453125q-1.734375 0 -3.15625 0.5q-1.40625 0.5 -2.40625 1.3125q-1.0 0.828125 -1.59375 1.78125q-0.59375 0.953125 -0.59375 1.875q-0.09375 0.8125 0.453125 1.359375q0.546875 0.546875 1.828125 0.546875zm51.84851 -9.390625q-3.453125 0 -5.640625 -1.09375q-2.1875 -1.09375 -3.421875 -2.6875q-1.234375 -1.59375 -1.734375 -3.453125q-0.5 -1.875 -0.5 -3.421875q0 -2.734375 0.453125 -5.78125q0.453125 -3.0625 1.09375 -5.65625q0.640625 -2.59375 1.140625 -4.421875q0.5 -1.828125 0.6875 -2.28125q0.8125 -2.640625 2.125 -4.59375q1.328125 -1.96875 3.703125 -2.703125q0.90625 -0.171875 1.921875 -0.359375q0.8125 -0.09375 1.671875 -0.09375q0.875 0 1.609375 0.28125q-2.46875 6.28125 -3.890625 10.484375q-1.40625 4.1875 -2.125 6.828125q-0.828125 3.015625 -1.015625 4.828125q-0.453125 4.109375 0.734375 6.203125q1.1875 2.09375 4.828125 2.09375q2.375 0 4.5625 -1.765625q2.1875 -1.78125 4.015625 -4.609375q-0.28125 -1.46875 -0.28125 -3.015625q0 -2.90625 0.5 -5.6875q0.5 -2.78125 1.1875 -5.1875q0.6875 -2.421875 1.453125 -4.328125q0.78125 -1.921875 1.328125 -3.015625q1.0 -2.1875 1.8125 -2.6875q0.828125 -0.515625 2.65625 -0.59375q0.71875 -0.09375 1.21875 -0.046875q0.515625 0.046875 0.875 0.125q1.09375 0.28125 1.09375 1.09375q0 1.46875 -0.1875 4.390625q-0.171875 2.90625 -1.09375 6.0q-0.640625 2.5625 -1.234375 4.34375q-0.578125 1.765625 -1.125 3.0q-0.546875 1.234375 -1.09375 2.015625q-0.546875 0.765625 -1.015625 1.40625q0.1875 2.734375 0.453125 4.375q0.28125 1.640625 0.6875 2.515625q0.421875 0.859375 1.0 1.171875q0.59375 0.3125 1.328125 0.3125q1.28125 0 3.0 -1.21875q1.734375 -1.234375 3.609375 -3.09375q1.875 -1.875 3.734375 -4.109375q1.875 -2.234375 3.421875 -4.234375q1.546875 -2.015625 2.640625 -3.515625q1.09375 -1.5 1.359375 -1.875q0.640625 -0.8125 1.234375 -0.984375q0.59375 -0.1875 0.953125 0.125q0.375 0.3125 0.421875 1.0q0.046875 0.6875 -0.421875 1.5q-1.8125 3.46875 -4.5 7.34375q-2.6875 3.875 -5.75 7.15625q-3.046875 3.28125 -6.15625 5.46875q-3.09375 2.1875 -5.828125 2.1875q-2.453125 0 -3.875 -1.6875q-1.40625 -1.6875 -2.40625 -4.875q-2.09375 3.28125 -4.921875 5.0625q-2.828125 1.765625 -6.296875 1.765625zm52.49756 -55.140625q-0.265625 1.015625 -1.046875 1.96875q-0.765625 0.953125 -1.734375 1.546875q-0.953125 0.59375 -1.953125 0.78125q-1.0 0.171875 -1.640625 -0.375q-1.921875 -1.453125 -2.015625 -3.140625q-0.078125 -1.6875 0.828125 -3.1875q0.90625 -1.5 2.265625 -2.546875q1.375 -1.0625 2.390625 -1.234375q1.0 -0.1875 1.671875 0.40625q0.6875 0.59375 1.046875 1.546875q0.375 0.953125 0.421875 2.140625q0.046875 1.1875 -0.234375 2.09375zm-12.578125 19.421875q0.453125 -0.546875 1.734375 -0.90625q1.28125 -0.375 2.640625 -0.59375q1.375 -0.234375 2.515625 -0.28125q1.140625 -0.046875 1.3125 0.046875q0.09375 0.09375 -0.453125 1.921875q-0.546875 1.8125 -1.375 4.28125q-0.8125 2.453125 -1.734375 5.0625q-0.90625 2.59375 -1.359375 4.234375q-0.453125 1.640625 -1.09375 3.6875q-0.640625 2.046875 -1.140625 4.015625q-0.5 1.953125 -0.6875 3.6875q-0.171875 1.734375 0.28125 2.640625q0.453125 1.09375 1.0 1.5q0.546875 0.40625 1.1875 0.40625q1.828125 0 4.609375 -2.0q2.78125 -2.0 5.640625 -4.78125q2.875 -2.78125 5.328125 -5.65625q2.46875 -2.875 3.65625 -4.59375q0.734375 -0.921875 1.5 -1.1875q0.78125 -0.28125 1.28125 0.09375q0.5 0.359375 0.546875 1.1875q0.046875 0.8125 -0.59375 1.90625q-1.453125 2.546875 -4.28125 6.0625q-2.828125 3.5 -6.015625 6.75q-3.1875 3.234375 -6.25 5.515625q-3.046875 2.265625 -4.96875 2.359375q-1.546875 0.09375 -3.046875 -0.5q-1.5 -0.59375 -2.734375 -1.640625q-1.234375 -1.046875 -2.0625 -2.453125q-0.8125 -1.421875 -0.90625 -2.96875q-0.265625 -2.28125 0 -6.234375q0.28125 -3.96875 1.0 -8.109375q0.734375 -4.15625 1.875 -7.890625q1.140625 -3.75 2.59375 -5.5625zm33.641815 31.171875q2.8125 0 6.234375 -2.234375q3.421875 -2.234375 6.65625 -5.234375q3.234375 -3.015625 5.921875 -6.15625q2.6875 -3.15625 4.0625 -5.0625q0.8125 -1.1875 1.546875 -1.40625q0.734375 -0.234375 1.09375 0.21875q0.359375 0.453125 0.265625 1.421875q-0.078125 0.953125 -0.8125 2.140625q-0.640625 1.09375 -2.140625 3.140625q-1.5 2.046875 -3.5625 4.46875q-2.046875 2.40625 -4.640625 4.921875q-2.59375 2.5 -5.421875 4.5625q-2.828125 2.046875 -5.84375 3.359375q-3.0 1.328125 -5.921875 1.328125q-4.0 0 -6.703125 -1.515625q-2.6875 -1.5 -4.28125 -3.859375q-1.59375 -2.375 -2.21875 -5.25q-0.640625 -2.875 -0.640625 -5.6875q0 -2.828125 1.265625 -7.015625q1.28125 -4.203125 3.78125 -8.078125q2.515625 -3.875 6.34375 -6.65625q3.828125 -2.78125 9.015625 -2.78125q2.921875 0 4.96875 2.015625q2.046875 2.0 1.96875 5.46875q0 1.640625 -0.546875 3.234375q-0.546875 1.59375 -1.46875 2.828125q-0.90625 1.21875 -2.140625 1.953125q-1.234375 0.734375 -2.6875 0.734375q-1.1875 0 -1.78125 -0.859375q-0.59375 -0.875 -0.734375 -2.015625q-0.125 -1.140625 0 -2.234375q0.140625 -1.09375 0.328125 -1.453125q0.453125 -0.640625 1.0 -0.90625q0.546875 -0.28125 1.28125 -0.640625q0.546875 -0.28125 0.859375 -0.828125q0.328125 -0.546875 0.328125 -1.1875q0 -0.640625 -0.375 -1.09375q-0.359375 -0.453125 -1.171875 -0.453125q-0.828125 0 -2.96875 1.328125q-2.140625 1.3125 -4.375 3.921875q-2.234375 2.59375 -3.96875 6.515625q-1.734375 3.90625 -1.8125 9.109375q-0.09375 3.0 0.8125 4.921875q0.90625 1.90625 2.265625 3.0q1.375 1.09375 3.015625 1.5625q1.640625 0.453125 3.203125 0.453125zm65.15433 -15.046875q-2.09375 3.46875 -4.78125 7.15625q-2.6875 3.6875 -5.703125 6.75q-3.0 3.046875 -6.1875 5.046875q-3.1875 2.015625 -6.375 2.015625q-3.203125 0 -4.609375 -2.140625q-1.40625 -2.140625 -1.328125 -4.78125q0 -1.1875 0.234375 -2.09375q0.234375 -0.921875 0.5 -1.640625q0.28125 -0.734375 0.59375 -1.5q0.3125 -0.78125 0.59375 -1.796875q0.359375 -1.171875 0.03125 -2.125q-0.3125 -0.96875 -0.765625 -1.703125q-0.8125 0.921875 -1.859375 1.609375q-1.046875 0.671875 -2.609375 0.671875q-1.09375 0 -2.0 -1.046875q-0.9062195 -1.046875 -0.9062195 -2.59375q0 -1.28125 0.5937195 -2.09375q0.59375 -0.828125 1.359375 -1.28125q0.78125 -0.453125 1.59375 -0.625q0.828125 -0.1875 1.375 -0.1875q0.265625 0 1.125 0.09375q0.875 0.078125 1.875 0.265625q3.28125 -2.640625 4.6875 -4.78125q1.421875 -2.140625 0.234375 -3.875q-0.71875 -1.1875 -1.8125 -1.234375q-1.09375 -0.046875 -2.28125 0.546875q-1.1875 0.59375 -2.328125 1.515625q-1.140625 0.90625 -2.046875 1.71875q-1.828125 1.828125 -4.0625 4.34375q-2.2343445 2.5 -3.6874695 4.140625q-0.640625 2.734375 -1.28125 5.734375q-0.546875 2.640625 -1.234375 5.96875q-0.671875 3.328125 -1.40625 6.875q-0.546875 0.28125 -1.140625 0.40625q-0.59375 0.140625 -1.046875 0.234375q-0.546875 0.09375 -1.09375 0.09375q-0.734375 0 -1.359375 -0.046875q-0.640625 -0.046875 -1.046875 -0.453125q-0.421875 -0.40625 -0.453125 -1.3125q-0.046875 -0.921875 0.5 -2.5625q0.71875 -2.359375 1.8125 -6.328125q1.09375 -3.96875 2.28125 -8.703125q1.1875 -4.75 2.40625 -9.890625q1.234375 -5.15625 2.328125 -9.84375q1.09375 -4.703125 1.859375 -8.484375q0.78125 -3.78125 1.15625 -5.96875q0.265625 -2.359375 0.546875 -4.546875q0.171875 -1.828125 0.21875 -3.59375q0.046875 -1.78125 -0.21875 -2.703125q0.453125 -0.453125 1.2655945 -0.8125q0.828125 -0.375 1.828125 -0.546875q1.0 -0.28125 2.375 -0.453125q1.546875 -0.1875 2.59375 -0.09375q1.046875 0.09375 1.5 0.90625q0.546875 0.90625 0.21875 3.0625q-0.3125 2.140625 -1.3125 5.96875q-1.265625 4.921875 -2.59375 8.984375q-1.328125 4.046875 -2.5625 7.609375q-1.21875 3.546875 -2.359375 6.875q-1.1405945 3.3125 -2.0468445 6.78125q1.8124695 -2.640625 4.5468445 -5.59375q2.734375 -2.96875 6.203125 -4.890625q3.640625 -1.90625 6.015625 -1.90625q2.921875 0 4.1875 1.96875q1.28125 1.953125 1.1875 4.59375q-0.09375 2.09375 -1.046875 3.875q-0.953125 1.765625 -2.328125 3.28125q-1.359375 1.5 -2.90625 2.59375q-1.546875 1.09375 -2.640625 1.828125q1.265625 0.71875 2.21875 1.953125q0.96875 1.234375 0.875 3.046875q-0.09375 2.46875 -0.96875 4.34375q-0.859375 1.859375 -0.859375 3.40625q0.09375 1.1875 0.5 1.734375q0.421875 0.546875 1.78125 0.546875q2.46875 0 5.15625 -2.09375q2.6875 -2.09375 5.046875 -4.828125q2.375 -2.734375 4.375 -5.421875q2.015625 -2.6875 3.109375 -3.96875q1.546875 -1.640625 2.59375 -0.859375q1.046875 0.765625 -0.234375 2.859375z" fill-rule="nonzero"/><path fill="#ffffff" d="m303.39536 377.05612q-2.640625 0 -4.875 -2.328125q-2.234375 -2.3125 -3.65625 -6.65625q-1.40625 -4.328125 -2.0 -10.65625q-0.59375 -6.328125 0.046875 -14.4375q0.359375 -5.390625 1.453125 -10.984375q1.09375 -5.609375 2.453125 -10.84375q1.375 -5.25 2.921875 -9.890625q1.5625 -4.65625 2.875 -8.25q1.328125 -3.609375 2.1875 -5.796875q0.875 -2.1875 1.046875 -2.546875q0.28125 -0.453125 1.046875 -0.953125q0.78125 -0.5 1.828125 -0.859375q1.046875 -0.375 2.28125 -0.59375q1.234375 -0.234375 2.328125 -0.234375q0.90625 0 1.734375 0.09375q0.71875 0.09375 1.453125 0.28125q0.734375 0.171875 1.28125 0.53125q-1.015625 0.640625 -1.96875 1.96875q-0.953125 1.3125 -1.78125 2.78125q-1.0 1.640625 -1.8125 3.546875q-1.828125 3.828125 -3.84375 9.296875q-2.0 5.46875 -3.78125 11.625q-1.765625 6.140625 -3.09375 12.484375q-1.3125 6.328125 -1.765625 11.890625q-0.734375 11.21875 0.8125 16.71875q1.546875 5.515625 4.375 5.515625q1.375 0 2.921875 -1.734375q1.546875 -1.71875 3.140625 -4.453125q1.59375 -2.734375 3.140625 -6.109375q1.546875 -3.375 2.921875 -6.65625q0.8125 -2.09375 1.765625 -4.6875q0.96875 -2.609375 1.921875 -5.34375q0.953125 -2.734375 1.859375 -5.421875q0.921875 -2.6875 1.65625 -4.875q0 -2.734375 0.078125 -5.78125q0.09375 -3.0625 0.40625 -6.203125q0.328125 -3.140625 0.875 -6.1875q0.546875 -3.0625 1.46875 -5.609375q1.8125 -4.921875 4.265625 -7.25q2.46875 -2.328125 4.296875 -2.40625q1.28125 0 1.8125 1.09375q0.546875 1.09375 0.46875 2.90625q-0.1875 2.375 -0.828125 5.703125q-0.640625 3.328125 -1.5 7.109375q-0.859375 3.78125 -1.953125 7.65625q-1.09375 3.875 -2.109375 7.421875q-1.640625 9.390625 -2.0 17.0q-0.359375 7.609375 0.140625 13.03125q0.5 5.421875 1.71875 8.375q1.234375 2.96875 2.96875 2.96875q2.015625 0 4.234375 -2.734375q2.234375 -2.734375 4.421875 -7.234375q2.1875 -4.515625 4.234375 -10.25q2.0625 -5.75 3.75 -11.8125q1.6875 -6.0625 2.78125 -11.9375q1.09375 -5.875 1.453125 -10.625q0.265625 -3.90625 0.265625 -7.734375q0 -3.28125 -0.28125 -7.015625q-0.265625 -3.75 -0.984375 -6.75q1.1875 -1.0 3.1875 -1.640625q1.0 -0.375 2.1875 -0.640625q0.734375 -0.1875 1.546875 -0.28125q0.734375 -0.078125 1.453125 -0.125q0.734375 -0.046875 1.375 0.125q0.546875 1.28125 0.765625 3.296875q0.234375 2.0 0.328125 3.90625q0.09375 2.28125 -0.09375 4.75q-0.734375 9.65625 -2.515625 18.953125q-1.765625 9.296875 -4.328125 17.640625q-2.546875 8.328125 -5.6875 15.3125q-3.140625 6.96875 -6.46875 12.0625q-3.328125 5.109375 -6.65625 7.9375q-3.328125 2.828125 -6.328125 2.828125q-3.1875 0 -5.109375 -2.703125q-1.90625 -2.6875 -2.921875 -6.75q-1.0 -4.046875 -1.28125 -8.6875q-0.265625 -4.65625 -0.171875 -8.5625q-2.09375 5.09375 -4.515625 9.828125q-2.40625 4.75 -5.015625 8.4375q-2.59375 3.6875 -5.28125 5.921875q-2.6875 2.234375 -5.328125 2.234375zm104.44104 -36.359375q-2.734375 4.0 -6.203125 7.796875q-3.453125 3.78125 -7.328125 6.75q-3.875 2.953125 -7.9375 4.765625q-4.046875 1.828125 -7.875 1.828125q-2.0 0 -4.328125 -0.96875q-2.328125 -0.953125 -4.25 -2.953125q-1.90625 -2.0 -3.046875 -5.1875q-1.125 -3.1875 -0.671875 -7.75q0.359375 -3.734375 2.3125 -7.875q1.96875 -4.15625 4.828125 -7.609375q2.875 -3.46875 6.46875 -5.75q3.609375 -2.28125 7.25 -2.28125q3.46875 0 5.015625 1.734375q1.546875 1.734375 1.375 4.28125q-0.28125 2.828125 -1.609375 5.203125q-1.3125 2.359375 -3.140625 4.28125q-1.8125 1.90625 -3.875 3.453125q-2.046875 1.546875 -3.859375 2.828125q-2.015625 1.375 -3.84375 2.609375q-1.8125 1.21875 -3.1875 2.21875q0.09375 2.28125 0.828125 3.828125q0.734375 1.546875 1.828125 2.515625q1.09375 0.953125 2.5 1.359375q1.40625 0.40625 2.875 0.40625q3.09375 0 6.46875 -1.953125q3.375 -1.953125 6.609375 -4.734375q3.234375 -2.78125 6.015625 -5.78125q2.78125 -3.015625 4.59375 -5.203125q0.640625 -0.734375 1.328125 -0.859375q0.6875 -0.140625 1.09375 0.171875q0.40625 0.3125 0.40625 1.09375q0 0.78125 -0.640625 1.78125zm-23.328125 -14.046875q-1.09375 0 -2.59375 1.09375q-1.5 1.09375 -2.96875 3.15625q-1.453125 2.046875 -2.734375 5.015625q-1.265625 2.953125 -1.90625 6.78125q1.09375 -0.8125 2.359375 -1.671875q1.28125 -0.875 2.5625 -1.875q3.921875 -3.015625 5.46875 -5.296875q1.546875 -2.28125 1.734375 -3.921875q0.171875 -1.71875 -0.375 -2.5q-0.546875 -0.78125 -1.546875 -0.78125zm63.521515 14.859375q-1.265625 1.828125 -3.28125 4.515625q-2.0 2.6875 -4.140625 5.375q-2.140625 2.6875 -4.203125 4.921875q-2.046875 2.234375 -3.40625 3.140625q-0.90625 0.546875 -2.09375 0.90625q-1.1875 0.375 -2.421875 0.46875q-1.234375 0.09375 -2.328125 -0.140625q-1.09375 -0.234375 -1.90625 -0.78125q-0.828125 -0.625 -1.375 -1.8125q-0.453125 -1.0 -0.859375 -2.640625q-0.40625 -1.640625 -0.3125 -4.109375q-2.1875 3.65625 -4.84375 5.609375q-2.640625 1.953125 -5.0 2.875q-2.734375 1.0 -5.46875 1.171875q-1.28125 0 -2.75 -0.859375q-1.453125 -0.859375 -2.453125 -2.71875q-1.0 -1.875 -1.265625 -4.84375q-0.28125 -2.96875 0.71875 -7.0625q1.28125 -5.5625 4.0625 -10.109375q2.78125 -4.5625 6.0625 -7.796875q3.28125 -3.234375 6.46875 -4.875q3.1875 -1.640625 5.28125 -1.46875q2.46875 0.453125 4.015625 1.46875q1.265625 0.90625 1.671875 2.6875q0.421875 1.765625 -1.5 4.6875q1.28125 -0.265625 2.140625 -0.359375q0.875 -0.09375 1.328125 -0.09375q0.546875 0 0.734375 0.09375q0.09375 0.171875 0.09375 0.765625q0 0.59375 -0.28125 2.15625q-0.265625 1.546875 -0.8125 4.1875q-0.546875 2.640625 -1.46875 6.828125q-0.171875 0.828125 -0.3125 1.515625q-0.140625 0.671875 -0.28125 1.359375q-0.125 0.6875 -0.3125 1.59375q-0.1875 0.90625 -0.453125 2.28125q-0.09375 0.8125 -0.046875 1.78125q0.046875 0.953125 0.3125 1.78125q0.28125 0.8125 0.875 1.3125q0.59375 0.5 1.6875 0.5q0.90625 0 2.359375 -1.140625q1.46875 -1.140625 3.109375 -2.90625q1.640625 -1.78125 3.40625 -3.921875q1.78125 -2.140625 3.328125 -4.140625q1.546875 -2.015625 2.78125 -3.5625q1.234375 -1.546875 1.78125 -2.28125q0.734375 -0.828125 1.453125 -0.953125q0.734375 -0.140625 1.09375 0.40625q0.359375 0.546875 0.125 1.640625q-0.21875 1.09375 -1.3125 2.546875zm-26.703125 4.015625q0.453125 -1.828125 1.09375 -4.28125q0.640625 -2.46875 1.09375 -4.734375q0.453125 -2.28125 0.6875 -3.78125q0.234375 -1.515625 -0.140625 -1.421875q-0.453125 0.09375 -1.0 0.265625q-0.453125 0.1875 -1.1875 0.28125q-0.71875 0.09375 -1.453125 0.265625q0.734375 -1.453125 0.859375 -2.40625q0.140625 -0.953125 0.046875 -1.5q-0.09375 -0.640625 -0.359375 -1.015625q-1.0 -0.8125 -3.515625 1.328125q-2.5 2.140625 -5.78125 7.890625q-1.375 2.359375 -2.203125 5.046875q-0.8125 2.6875 -1.125 5.0625q-0.3125 2.375 -0.140625 4.15625q0.1875 1.765625 0.734375 2.3125q1.0 1.0 2.265625 0.96875q1.28125 -0.046875 2.609375 -0.734375q1.328125 -0.6875 2.640625 -1.78125q1.328125 -1.09375 2.375 -2.28125q1.046875 -1.1875 1.71875 -2.1875q0.6875 -1.0 0.78125 -1.453125zm54.2269 -8.9375q0.375 -0.546875 0.96875 -0.671875q0.59375 -0.140625 0.953125 0.140625q0.359375 0.265625 0.40625 0.90625q0.046875 0.625 -0.5 1.71875q-1.828125 3.46875 -4.796875 7.484375q-2.953125 4.0 -6.234375 7.515625q-3.28125 3.515625 -6.375 5.796875q-3.09375 2.265625 -5.203125 2.265625q-3.0 0 -5.015625 -1.1875q-2.0 -1.171875 -3.140625 -2.90625q-1.140625 -1.734375 -1.59375 -3.78125q-0.453125 -2.0625 -0.265625 -3.78125q0.09375 -1.46875 0.640625 -5.25q0.546875 -3.78125 1.453125 -8.75q0.90625 -4.96875 2.046875 -10.65625q1.140625 -5.703125 2.421875 -10.984375q-1.546875 0.171875 -3.109375 0.359375q-1.546875 0.1875 -2.8125 0.1875q-2.921875 0 -5.515625 -0.6875q-2.59375 -0.6875 -3.875 -1.328125q-0.734375 -0.359375 -0.640625 -1.03125q0.09375 -0.6875 0.546875 -1.375q0.453125 -0.6875 1.140625 -1.1875q0.6875 -0.5 1.234375 -0.5q1.734375 0.1875 3.734375 0.328125q2.0 0.125 4.375 0.03125q1.734375 -0.078125 3.328125 -0.265625q1.59375 -0.1875 3.140625 -0.453125q1.1875 -4.375 2.328125 -7.609375q1.140625 -3.234375 2.046875 -4.515625q0.265625 -0.453125 1.21875 -0.765625q0.96875 -0.328125 2.0625 -0.46875q1.09375 -0.140625 2.09375 0q1.0 0.140625 1.453125 0.6875q0.46875 0.734375 0.375 3.75q-0.09375 3.0 -1.0 7.640625q3.828125 0 6.78125 0.421875q2.96875 0.40625 5.0625 0.90625q2.09375 0.5 3.359375 1.0q1.28125 0.5 1.921875 0.6875q0.640625 0.171875 0.6875 0.90625q0.046875 0.734375 -0.28125 1.515625q-0.3125 0.765625 -1.046875 1.3125q-0.71875 0.546875 -1.640625 0.359375q-0.90625 -0.09375 -2.046875 -0.359375q-1.140625 -0.28125 -2.734375 -0.453125q-1.59375 -0.1875 -3.78125 -0.375q-2.1875 -0.1875 -5.109375 -0.1875q-0.546875 0 -1.234375 0.046875q-0.671875 0.046875 -1.40625 0.046875q-0.359375 1.46875 -0.6875 2.875q-0.3125 1.40625 -0.859375 2.96875q-1.1875 3.640625 -2.734375 7.921875q-1.359375 3.734375 -3.28125 8.578125q-1.90625 4.828125 -4.28125 10.296875q-0.546875 3.90625 0.125 5.96875q0.6875 2.046875 1.703125 2.953125q1.171875 1.0 2.90625 1.09375q1.375 0.1875 3.328125 -0.953125q1.96875 -1.140625 4.0625 -3.046875q2.09375 -1.921875 4.234375 -4.203125q2.140625 -2.28125 3.953125 -4.46875q1.828125 -2.1875 3.1875 -3.953125q1.375 -1.78125 1.921875 -2.515625zm41.568756 3.015625q0.640625 -0.734375 1.3125 -0.78125q0.6875 -0.046875 1.09375 0.375q0.421875 0.40625 0.375 1.234375q-0.046875 0.8125 -0.78125 1.8125q-1.734375 2.375 -4.015625 4.875q-2.265625 2.5 -4.8750305 4.875q-2.59375 2.375 -5.234375 4.46875q-2.640625 2.09375 -5.109375 3.453125q-2.734375 1.5625 -4.609375 1.5625q-1.859375 0 -3.671875 -2.375q-1.640625 -2.09375 -1.609375 -4.5q0.046875 -2.421875 1.0625 -6.078125q0.625 -2.265625 1.765625 -5.40625q1.140625 -3.15625 1.828125 -6.0625q0.6875 -2.921875 0.40625 -4.96875q-0.265625 -2.0625 -2.359375 -2.0625q-1.46875 0 -3.15625 1.015625q-1.6875 1.0 -3.375 2.59375q-1.671875 1.59375 -3.234375 3.59375q-1.546875 2.0 -2.734375 3.921875q-0.71875 3.546875 -1.453125 7.015625q-0.640625 2.921875 -1.328125 6.34375q-0.671875 3.40625 -1.3125 6.046875q-0.546875 0.453125 -1.1875 0.640625q-0.640625 0.1875 -1.1875 0.1875q-0.640625 0 -1.265625 -0.09375q-0.734375 -0.1875 -1.375 -0.546875q-0.546875 -0.359375 -1.09375 -0.953125q-0.546875 -0.59375 -0.8125 -1.59375q4.09375 -16.859375 6.453125 -27.0625q2.375 -10.21875 3.65625 -15.59375q1.453125 -6.375 2.0 -8.84375q0.28125 -1.734375 0.46875 -3.375q0.171875 -1.453125 0.171875 -3.0q0 -1.546875 -0.265625 -2.828125q0.71875 -0.453125 1.578125 -0.71875q0.875 -0.28125 1.703125 -0.46875q1.0 -0.265625 2.0 -0.453125q1.0 -0.1875 1.828125 -0.1875q0.71875 0 1.359375 0.140625q0.640625 0.140625 0.828125 0.59375q0.546875 0.453125 0.5 1.828125q-0.046875 1.359375 -0.234375 2.8125q-0.359375 1.734375 -0.8125 3.75q-1.921875 7.375 -4.296875 14.34375q-2.359375 6.96875 -4.359375 14.90625q1.171875 -1.828125 2.8125 -3.734375q1.640625 -1.921875 3.59375 -3.515625q1.96875 -1.59375 4.15625 -2.640625q2.1875 -1.046875 4.65625 -1.046875q1.265625 0 2.40625 0.40625q1.140625 0.40625 2.0 1.375q0.875 0.953125 1.328125 2.546875q0.453125 1.59375 0.375 3.96875q0 1.453125 -0.328125 3.0q-0.3125 1.546875 -0.859375 3.421875q-0.546875 1.875 -1.421875 4.15625q-0.859375 2.265625 -2.046875 5.28125q-0.8125 2.09375 -1.28125 3.5625q-0.453125 1.453125 0.1875 2.546875q0.828125 1.453125 3.234375 0.6875q2.421875 -0.78125 7.25 -4.703125q1.09375 -0.90625 2.453125 -2.265625q1.375 -1.375 2.6406555 -2.78125q1.28125 -1.421875 2.375 -2.703125q1.09375 -1.28125 1.828125 -2.0zm37.72412 1.09375q-2.734375 4.0 -6.203125 7.796875q-3.453125 3.78125 -7.328125 6.75q-3.875 2.953125 -7.9375 4.765625q-4.046875 1.828125 -7.875 1.828125q-2.0 0 -4.328125 -0.96875q-2.328125 -0.953125 -4.25 -2.953125q-1.90625 -2.0 -3.046875 -5.1875q-1.125 -3.1875 -0.671875 -7.75q0.359375 -3.734375 2.3125 -7.875q1.96875 -4.15625 4.828125 -7.609375q2.875 -3.46875 6.46875 -5.75q3.609375 -2.28125 7.25 -2.28125q3.46875 0 5.015625 1.734375q1.546875 1.734375 1.375 4.28125q-0.28125 2.828125 -1.609375 5.203125q-1.3125 2.359375 -3.140625 4.28125q-1.8125 1.90625 -3.875 3.453125q-2.046875 1.546875 -3.859375 2.828125q-2.015625 1.375 -3.84375 2.609375q-1.8125 1.21875 -3.1875 2.21875q0.09375 2.28125 0.828125 3.828125q0.734375 1.546875 1.828125 2.515625q1.09375 0.953125 2.5 1.359375q1.40625 0.40625 2.875 0.40625q3.09375 0 6.46875 -1.953125q3.375 -1.953125 6.609375 -4.734375q3.234375 -2.78125 6.015625 -5.78125q2.78125 -3.015625 4.59375 -5.203125q0.640625 -0.734375 1.328125 -0.859375q0.6875 -0.140625 1.09375 0.171875q0.40625 0.3125 0.40625 1.09375q0 0.78125 -0.640625 1.78125zm-23.328125 -14.046875q-1.09375 0 -2.59375 1.09375q-1.5 1.09375 -2.96875 3.15625q-1.453125 2.046875 -2.734375 5.015625q-1.265625 2.953125 -1.90625 6.78125q1.09375 -0.8125 2.359375 -1.671875q1.28125 -0.875 2.5625 -1.875q3.921875 -3.015625 5.46875 -5.296875q1.546875 -2.28125 1.734375 -3.921875q0.171875 -1.71875 -0.375 -2.5q-0.546875 -0.78125 -1.546875 -0.78125zm13.302734 32.546875q-0.625 1.0 -1.40625 1.3125q-0.78125 0.328125 -1.359375 0.09375q-0.59375 -0.21875 -0.78125 -0.953125q-0.1875 -0.734375 0.359375 -1.828125q0.28125 -0.546875 1.234375 -2.453125q0.953125 -1.921875 2.28125 -4.609375q1.3125 -2.6875 2.875 -5.828125q1.546875 -3.140625 2.953125 -5.96875q1.40625 -2.828125 2.59375 -5.0625q1.1875 -2.234375 1.734375 -3.234375q-1.0 -0.90625 -1.375 -1.3125q-0.359375 -0.421875 -0.53125 -1.78125q-0.1875 -1.1875 0.53125 -3.09375q0.734375 -1.921875 1.921875 -3.703125q1.1875 -1.78125 2.640625 -3.046875q1.46875 -1.28125 2.828125 -1.28125q2.546875 0 3.59375 1.640625q1.0625 1.640625 1.234375 3.375q0.1875 1.1875 -0.1875 3.015625q-0.359375 1.8125 -1.359375 3.265625q0.28125 0.1875 0.734375 0.421875q0.453125 0.21875 1.453125 0.21875q1.453125 0 2.046875 -0.171875q0.59375 -0.1875 1.875 -0.1875q1.546875 0 2.546875 0.78125q1.0 0.765625 1.640625 1.90625q0.640625 1.140625 0.953125 2.46875q0.328125 1.3125 0.421875 2.40625q0.265625 2.28125 -1.1875 4.75q-1.453125 2.453125 -3.5625 5.375q-1.265625 1.8125 -2.546875 4.09375q-1.28125 2.28125 -1.09375 4.109375q0.1875 1.171875 0.640625 1.90625q0.453125 0.734375 2.546875 0.734375q1.546875 0 3.421875 -1.140625q1.875 -1.140625 3.828125 -2.921875q1.953125 -1.78125 3.859375 -3.921875q1.921875 -2.140625 3.5625 -4.1875q1.640625 -2.046875 2.78125 -3.6875q1.140625 -1.640625 1.6875 -2.375q0.453125 -0.734375 1.1875 -1.0q0.734375 -0.28125 1.28125 0q0.546875 0.265625 0.671875 1.09375q0.140625 0.8125 -0.671875 2.1875q-0.546875 0.90625 -1.875 2.921875q-1.3125 2.0 -3.1875 4.46875q-1.875 2.453125 -4.15625 5.046875q-2.265625 2.59375 -4.78125 4.734375q-2.5 2.140625 -5.015625 3.5q-2.5 1.375 -4.78125 1.375q-2.359375 0 -3.921875 -0.90625q-1.546875 -0.90625 -2.5 -2.21875q-0.953125 -1.328125 -1.375 -2.921875q-0.40625 -1.59375 -0.3125 -2.96875q0.09375 -1.09375 0.59375 -2.3125q0.5 -1.234375 1.1875 -2.5625q0.6875 -1.328125 1.453125 -2.640625q0.78125 -1.328125 1.421875 -2.59375q1.546875 -2.65625 2.5 -4.515625q0.953125 -1.875 0.953125 -3.140625q0 -0.828125 -0.359375 -1.46875q-0.359375 -0.640625 -1.1875 -0.640625q-0.546875 0 -0.78125 0.046875q-0.21875 0.046875 -0.453125 0.046875q-0.21875 0 -0.640625 0.046875q-0.40625 0.046875 -1.21875 0.046875q-1.1875 0 -2.015625 -0.359375q-0.8125 -0.375 -1.546875 -0.546875q-0.359375 0.640625 -1.640625 2.734375q-1.265625 2.09375 -2.953125 4.921875q-1.6875 2.828125 -3.5625 5.921875q-1.859375 3.09375 -3.5 5.78125q-1.640625 2.6875 -2.78125 4.5625q-1.140625 1.875 -1.421875 2.234375z" fill-rule="nonzero"/><path fill="#ffff00" d="m582.979 429.1181l-18.194336 5.175354l0 -10.350708zm-13.208679 -25.50119l-8.287781 13.951355l-9.15033 -7.3189697zm-31.87793 -10.561798l6.470337 14.5529175l-12.940674 0zm-31.88208 10.561798l17.44226 6.6323853l-9.15033 7.3189697zm-13.204529 25.50119l18.194305 -5.175354l0 10.350708zm13.204529 25.497864l8.291931 -13.947998l9.15033 7.3189697zm31.88208 10.5651245l-6.470337 -14.5529175l12.940674 0zm31.87793 -10.5651245l-17.43811 -6.6290283l9.15033 -7.3189697zm-54.421265 -25.497864c0 -9.958527 10.093018 -18.031494 22.543335 -18.031494c12.450317 0 22.543274 8.072968 22.543274 18.031494c0 9.958527 -10.092957 18.031494 -22.543274 18.031494c-12.450317 0 -22.543335 -8.072968 -22.543335 -18.031494z" fill-rule="evenodd"/><path stroke="#000000" stroke-width="1.0" stroke-linejoin="round" stroke-linecap="butt" d="m582.979 429.1181l-18.194336 5.175354l0 -10.350708zm-13.208679 -25.50119l-8.287781 13.951355l-9.15033 -7.3189697zm-31.87793 -10.561798l6.470337 14.5529175l-12.940674 0zm-31.88208 10.561798l17.44226 6.6323853l-9.15033 7.3189697zm-13.204529 25.50119l18.194305 -5.175354l0 10.350708zm13.204529 25.497864l8.291931 -13.947998l9.15033 7.3189697zm31.88208 10.5651245l-6.470337 -14.5529175l12.940674 0zm31.87793 -10.5651245l-17.43811 -6.6290283l9.15033 -7.3189697zm-54.421265 -25.497864c0 -9.958527 10.093018 -18.031494 22.543335 -18.031494c12.450317 0 22.543274 8.072968 22.543274 18.031494c0 9.958527 -10.092957 18.031494 -22.543274 18.031494c-12.450317 0 -22.543335 -8.072968 -22.543335 -18.031494z" fill-rule="evenodd"/><path fill="#ffffff" d="m409.65463 467.5116l0 0c-1.4827576 -8.14566 3.3854065 -16.209381 12.538727 -20.76941c9.15332 -4.560028 20.986542 -4.8166504 30.478363 -0.6609802l0 0c3.3622742 -4.736206 9.516235 -8.006256 16.600433 -8.820984c7.084198 -0.8147278 14.266571 0.9215393 19.374542 4.683655l0 0c2.8642578 -4.2941895 8.48822 -7.1793213 14.876282 -7.6316223c6.388031 -0.45230103 12.636078 1.5922546 16.527008 5.408142l0 0c5.1746826 -4.551819 13.407654 -6.4683228 21.136597 -4.920227c7.728882 1.5480652 13.565491 6.282715 14.984253 12.155182l0 0c6.3398438 1.2927246 11.620789 4.57901 14.478455 9.009827c2.857666 4.430786 3.0116577 9.571411 0.42218018 14.093689l0 0c6.24292 6.073944 7.703308 14.167419 3.8361206 21.26004c-3.8671265 7.092621 -12.480774 12.118835 -22.626465 13.202972c-0.0715332 6.6566772 -4.955139 12.764801 -12.768494 15.96994c-7.8133545 3.2052002 -17.336365 3.006958 -24.898499 -0.51831055c-3.2210388 7.972534 -12.287231 13.838684 -23.281616 15.063965c-10.994385 1.2253418 -21.946014 -2.40979 -28.123413 -9.3349c-7.5721436 3.413391 -16.658112 4.3966675 -25.208282 2.7280884c-8.55014 -1.6686401 -15.844269 -5.848633 -20.236969 -11.597046l0 0c-7.737793 0.6768799 -15.219177 -2.3200073 -18.73117 -7.503357c-3.511963 -5.1833496 -2.3069458 -11.449707 3.0170593 -15.689148l0 0c-6.902313 -3.0368958 -10.424286 -9.063171 -8.72937 -14.93631c1.6949463 -5.8731384 8.222717 -10.262299 16.179352 -10.878662z" fill-rule="evenodd"/><path fill="#000000" fill-opacity="0.0" d="m402.0517 493.64053l0 0c3.2572327 1.433136 7.0200806 2.083252 10.783356 1.8630371m4.929077 21.329987c1.6183472 -0.14160156 3.2046204 -0.4413452 4.717926 -0.8916626m40.725067 9.760254c-1.1382446 -1.276001 -2.0912476 -2.6395264 -2.842743 -4.067383m54.249756 -1.6619263l0 0c0.58721924 -1.4534912 0.9677124 -2.949463 1.1350708 -4.4629517m36.530457 -10.988129c0.07611084 -7.0870667 -5.3085327 -13.57605 -13.8411255 -16.67978m32.631287 -17.78247c-1.3817749 2.4132996 -3.491333 4.554077 -6.163086 6.2545166m-8.736206 -29.358673l0 0c0.2354126 0.9745178 0.34436035 1.9637146 0.32537842 2.953827m-36.44568 -10.188507l0 0c-1.2908325 1.1354675 -2.354248 2.4042969 -3.1572876 3.7670593m-28.246246 -1.5440674l0 0c-0.68792725 1.0313416 -1.2015991 2.1226501 -1.5292053 3.2488098m-34.44635 0.88864136l0 0c2.008484 0.8793335 3.8665771 1.9377136 5.533478 3.151886m-48.549988 18.278595l0 0c0.2043457 1.1226807 0.5272522 2.2315369 0.9656677 3.316162" fill-rule="evenodd"/><path stroke="#000000" stroke-width="3.0" stroke-linejoin="round" stroke-linecap="butt" d="m409.65463 467.5116l0 0c-1.4827576 -8.14566 3.3854065 -16.209381 12.538727 -20.76941c9.15332 -4.560028 20.986542 -4.8166504 30.478363 -0.6609802l0 0c3.3622742 -4.736206 9.516235 -8.006256 16.600433 -8.820984c7.084198 -0.8147278 14.266571 0.9215393 19.374542 4.683655l0 0c2.8642578 -4.2941895 8.48822 -7.1793213 14.876282 -7.6316223c6.388031 -0.45230103 12.636078 1.5922546 16.527008 5.408142l0 0c5.1746826 -4.551819 13.407654 -6.4683228 21.136597 -4.920227c7.728882 1.5480652 13.565491 6.282715 14.984253 12.155182l0 0c6.3398438 1.2927246 11.620789 4.57901 14.478455 9.009827c2.857666 4.430786 3.0116577 9.571411 0.42218018 14.093689l0 0c6.24292 6.073944 7.703308 14.167419 3.8361206 21.26004c-3.8671265 7.092621 -12.480774 12.118835 -22.626465 13.202972c-0.0715332 6.6566772 -4.955139 12.764801 -12.768494 15.96994c-7.8133545 3.2052002 -17.336365 3.006958 -24.898499 -0.51831055c-3.2210388 7.972534 -12.287231 13.838684 -23.281616 15.063965c-10.994385 1.2253418 -21.946014 -2.40979 -28.123413 -9.3349c-7.5721436 3.413391 -16.658112 4.3966675 -25.208282 2.7280884c-8.55014 -1.6686401 -15.844269 -5.848633 -20.236969 -11.597046l0 0c-7.737793 0.6768799 -15.219177 -2.3200073 -18.73117 -7.503357c-3.511963 -5.1833496 -2.3069458 -11.449707 3.0170593 -15.689148l0 0c-6.902313 -3.0368958 -10.424286 -9.063171 -8.72937 -14.93631c1.6949463 -5.8731384 8.222717 -10.262299 16.179352 -10.878662z" fill-rule="evenodd"/><path stroke="#000000" stroke-width="3.0" stroke-linejoin="round" stroke-linecap="butt" d="m402.0517 493.64053l0 0c3.2572327 1.433136 7.0200806 2.083252 10.783356 1.8630371m4.929077 21.329987c1.6183472 -0.14160156 3.2046204 -0.4413452 4.717926 -0.8916626m40.725067 9.760254c-1.1382446 -1.276001 -2.0912476 -2.6395264 -2.842743 -4.067383m54.249756 -1.6619263l0 0c0.58721924 -1.4534912 0.9677124 -2.949463 1.1350708 -4.4629517m36.530457 -10.988129c0.07611084 -7.0870667 -5.3085327 -13.57605 -13.8411255 -16.67978m32.631287 -17.78247c-1.3817749 2.4132996 -3.491333 4.554077 -6.163086 6.2545166m-8.736206 -29.358673l0 0c0.2354126 0.9745178 0.34436035 1.9637146 0.32537842 2.953827m-36.44568 -10.188507l0 0c-1.2908325 1.1354675 -2.354248 2.4042969 -3.1572876 3.7670593m-28.246246 -1.5440674l0 0c-0.68792725 1.0313416 -1.2015991 2.1226501 -1.5292053 3.2488098m-34.44635 0.88864136l0 0c2.008484 0.8793335 3.8665771 1.9377136 5.533478 3.151886m-48.549988 18.278595l0 0c0.2043457 1.1226807 0.5272522 2.2315369 0.9656677 3.316162" fill-rule="evenodd"/></g></svg>