<svg version="1.1" viewBox="0.0 0.0 557.5616797900262 485.0787401574803" fill="none" stroke="none" stroke-linecap="square" stroke-miterlimit="10" xmlns:xlink="http://www.w3.org/1999/xlink" xmlns="http://www.w3.org/2000/svg"><clipPath id="p.0"><path d="m0 0l557.5617 0l0 485.07874l-557.5617 0l0 -485.07874z" clip-rule="nonzero"/></clipPath><g clip-path="url(#p.0)"><path fill="#000000" fill-opacity="0.0" d="m0 0l557.5617 0l0 485.07874l-557.5617 0z" fill-rule="evenodd"/><path fill="#000000" fill-opacity="0.0" d="m91.845146 200.021l0 0c0 -76.92848 64.25242 -139.29134 143.51181 -139.29134l0 0c38.06169 0 74.5645 14.675293 101.478195 40.797485c26.913666 26.122192 42.03363 61.5515 42.03363 98.49385l0 0c0 76.9285 -64.25244 139.29135 -143.51183 139.29135l0 0c-79.259384 0 -143.51181 -62.362854 -143.51181 -139.29135z" fill-rule="evenodd"/><path stroke="#ffffff" stroke-width="24.0" stroke-linejoin="round" stroke-linecap="butt" d="m91.845146 200.021l0 0c0 -76.92848 64.25242 -139.29134 143.51181 -139.29134l0 0c38.06169 0 74.5645 14.675293 101.478195 40.797485c26.913666 26.122192 42.03363 61.5515 42.03363 98.49385l0 0c0 76.9285 -64.25244 139.29135 -143.51183 139.29135l0 0c-79.259384 0 -143.51181 -62.362854 -143.51181 -139.29135z" fill-rule="evenodd"/><path fill="#000000" fill-opacity="0.0" d="m336.83514 298.51486l128.88187 104.724396" fill-rule="evenodd"/><path stroke="#ffffff" stroke-width="24.0" stroke-linejoin="round" stroke-linecap="butt" d="m336.83514 298.51486l128.88187 104.724396" fill-rule="evenodd"/></g></svg>